<mxfile host="65bd71144e">
    <diagram id="NsNRNcW-UvWx3H2eS7cz" name="Page-1">
        <mxGraphModel dx="1073" dy="2005" grid="1" gridSize="10" guides="1" tooltips="1" connect="1" arrows="1" fold="1" page="1" pageScale="1" pageWidth="827" pageHeight="1169" math="0" shadow="0">
            <root>
                <mxCell id="0"/>
                <mxCell id="1" parent="0"/>
                <mxCell id="3" value="" style="rounded=0;whiteSpace=wrap;html=1;" vertex="1" parent="1">
                    <mxGeometry x="34" y="-20" width="760" height="440" as="geometry"/>
                </mxCell>
                <mxCell id="7" value="" style="edgeStyle=none;html=1;" edge="1" parent="1" source="5" target="6">
                    <mxGeometry relative="1" as="geometry"/>
                </mxCell>
                <mxCell id="5" value="8PM Everyday - Start Process" style="rounded=0;whiteSpace=wrap;html=1;fillColor=#AFFFA4;" vertex="1" parent="1">
                    <mxGeometry x="80" y="80" width="120" height="60" as="geometry"/>
                </mxCell>
                <mxCell id="9" value="" style="edgeStyle=none;html=1;" edge="1" parent="1" source="6" target="8">
                    <mxGeometry relative="1" as="geometry"/>
                </mxCell>
                <mxCell id="6" value="Collect all runs completed this day on Strava for Athlete Cian Fish" style="rounded=0;whiteSpace=wrap;html=1;fillColor=#AFFFA4;" vertex="1" parent="1">
                    <mxGeometry x="348.5" y="80" width="130" height="60" as="geometry"/>
                </mxCell>
                <mxCell id="11" value="" style="edgeStyle=none;html=1;" edge="1" parent="1" source="8" target="10">
                    <mxGeometry relative="1" as="geometry"/>
                </mxCell>
                <mxCell id="8" value="Input the run data to Gemani (LLM)&amp;nbsp;" style="rounded=0;whiteSpace=wrap;html=1;fillColor=#AFFFA4;" vertex="1" parent="1">
                    <mxGeometry x="630" y="80" width="130" height="60" as="geometry"/>
                </mxCell>
                <mxCell id="13" value="" style="edgeStyle=none;html=1;" edge="1" parent="1" source="10" target="12">
                    <mxGeometry relative="1" as="geometry"/>
                </mxCell>
                <mxCell id="10" value="Request the following from LLM:&lt;br&gt;1. Summary&lt;div&gt;2. Improvements&lt;/div&gt;" style="rounded=0;whiteSpace=wrap;html=1;fillColor=#AFFFA4;" vertex="1" parent="1">
                    <mxGeometry x="630" y="230" width="130" height="60" as="geometry"/>
                </mxCell>
                <mxCell id="15" value="" style="edgeStyle=none;html=1;" edge="1" parent="1" source="12" target="14">
                    <mxGeometry relative="1" as="geometry"/>
                </mxCell>
                <mxCell id="12" value="Collect output from LLM" style="rounded=0;whiteSpace=wrap;html=1;fillColor=#AFFFA4;" vertex="1" parent="1">
                    <mxGeometry x="349" y="230" width="130" height="60" as="geometry"/>
                </mxCell>
                <mxCell id="14" value="Collect output from LLM" style="rounded=0;whiteSpace=wrap;html=1;fillColor=#AFFFA4;" vertex="1" parent="1">
                    <mxGeometry x="75" y="230" width="130" height="60" as="geometry"/>
                </mxCell>
                <mxCell id="16" value="MVP - #1" style="text;html=1;align=center;verticalAlign=middle;whiteSpace=wrap;rounded=0;" vertex="1" parent="1">
                    <mxGeometry x="384" y="10" width="60" height="30" as="geometry"/>
                </mxCell>
            </root>
        </mxGraphModel>
    </diagram>
</mxfile>